<?xml version="1.0" encoding="utf-8"?>
<!-- Svg Vector Icons : http://www.onlinewebfonts.com/icon -->
<!DOCTYPE svg PUBLIC "-//W3C//DTD SVG 1.1//EN" "http://www.w3.org/Graphics/SVG/1.1/DTD/svg11.dtd">
<svg version="1.1" xmlns="http://www.w3.org/2000/svg" xmlns:xlink="http://www.w3.org/1999/xlink" x="0px" y="0px" viewBox="0 0 1000 1000" enable-background="new 0 0 1000 1000" xml:space="preserve">
<metadata> Svg Vector Icons : http://www.onlinewebfonts.com/icon </metadata>
<g><path d="M500,10C229.4,10,10,229.4,10,500s219.4,490,490,490s490-219.4,490-490S770.6,10,500,10z M578.8,748.4c0,1.2-0.9,2.1-2.1,2.1h-35.4c-4.9,18.2-21.6,31.5-41.3,31.5c-19.7,0-36.4-13.4-41.3-31.5h-35.4c-1.2,0-2.1-0.9-2.1-2.1v-21.7c0-1.2,0.9-2.1,2.1-2.1h153.4c1.2,0,2.1,0.9,2.1,2.1V748.4L578.8,748.4z M578.8,710.5H421.2v-25.9h157.6V710.5z M578.8,670.5H421.2v-25.9h157.6V670.5z M666.9,541.1L666.9,541.1C666.8,541.1,666.8,541.1,666.9,541.1c-32.6,44.2-72,75.2-124.6,89.4l-84.6,0c0,0,0,0,0,0l0,0h0c-52.5-14.2-92-45.2-124.6-89.4c0,0,0,0,0,0l0,0c0,0,0,0,0,0c-24.5-33.9-39-75.5-39-120.5c0-113.7,92.1-205.8,205.8-205.8s205.8,92.1,205.8,205.8C705.8,465.6,691.4,507.3,666.9,541.1C666.9,541.1,666.9,541.1,666.9,541.1z"/><path d="M570.5,422.7h-67.3c-1.7,0-2.8-1.4-2.3-3l20.2-70.1c0.5-1.7-0.1-2-1.4-0.8L421,447.5c-1.2,1.2-0.8,2.2,0.9,2.2h75c1.7,0,2.7,1.3,2.2,3l-27.7,85.4c-0.5,1.6,0,1.9,1.1,0.6L571.5,425C572.7,423.7,572.2,422.7,570.5,422.7z"/></g>
</svg>